Patriot Games 1992 BluRay 1080p ac3-LoNeWoLf

Encoded by Tequila-Bob a.k.a. bobnjeff a.k.a.LoNeWoLf

 
http://www.imdb.com/title/tt0105112/

Genres:Action | Crime | Drama | Thriller

Rated R for strong sexuality, and for language and violence

Release Date:5 June 1992 (USA) 

When CIA Analyst Jack Ryan interferes with an IRA assassination, a renegade faction targets him and his family for revenge. 


Director: Phillip Noyce
Writers: Tom Clancy (novel), W. Peter Iliff (screenplay), and 1 more credit » 
Stars:Harrison Ford, Sean Bean and Anne Archer

Storyline
Jack Ryan, the hero of Tom Clancy's techno-thriller series, returns in the sequel to _The Hunt for Red October_. Ryan is on vacation in England when he spoils an assassination attempt on an important member of the Royal Family. Ryan gets drawn back into the CIA when the same splinter faction of the IRA targets him and his family

Cast
Cast overview, first billed only: 
  Harrison Ford  ...  Jack Ryan  
  Anne Archer  ...  Dr. Caroline "Cathy" Ryan  
  Patrick Bergin  ...  Kevin O'Donnell  
  Sean Bean  ...  Sean Miller  
  Thora Birch  ...  Sally Ryan  
  James Fox  ...  Lord William Holmes  
  Samuel L. Jackson  ...  Lt. Cmdr. Robby Jackson  
  Polly Walker  ...  Annette  
  J.E. Freeman  ...  Marty Cantor  
  James Earl Jones  ...  Adm. James Greer  
  Richard Harris  ...  Paddy O'Neil  
  Alex Norton  ...  Dennis Cooley  
  Hugh Fraser  ...  Geoffrey Watkins  
  David Threlfall  ...  Insp. Robert Highland  
  Alun Armstrong  ...  Sgt. Owens 

See the full size 1920x816 PNG files at the link below


 
http://s1015.photobucket.com/albums/af279/tequila-bob/Patriot%20Games%201992/

Format : Matroska 
File size : 7.98 GiB 
Duration : 1h 56mn 
Overall bit rate : 9 790 Kbps 
Encoded date : UTC 2010-12-04 00:59:58 
Writing application : mkvmerge v4.4.0 ('Die Wiederkehr') built on Oct 31 2010 21:52:48 
Writing library : libebml v1.0.0 + libmatroska v1.0.0 

Video 
ID : 1 
Format : AVC 
Format/Info : Advanced Video Codec 
Format profile : High@L4.1 
Format settings, CABAC : Yes 
Format settings, ReFrames : 7 frames 
Muxing mode : Container profile=Unknown@4.1 
Codec ID : V_MPEG4/ISO/AVC 
Duration : 1h 56mn 
Bit rate : 9 110 Kbps 
Width : 1 920 pixels 
Height : 832 pixels 
Display aspect ratio : 2.35:1 
Frame rate : 23.976 fps 
Color space : YUV 
Chroma subsampling : 4:2:0 
Bit depth : 8 bits 
Scan type : Progressive 
Bits/(Pixel*Frame) : 0.238 
Stream size : 7.30 GiB (91%) 
Writing library : x264 core 98 r1649 c54c47d 
Encoding settings : cabac=1 / ref=8 / deblock=1:0:0 / analyse=0x3:0x133 / me=umh / subme=7 / psy=1 / psy_rd=1.00:0.15 / mixed_ref=1 / me_range=24 / chroma_me=1 / trellis=1 / 8x8dct=1 / cqm=0 / deadzone=21,11 / fast_pskip=1 / chroma_qp_offset=-3 / threads=6 / sliced_threads=0 / nr=0 / decimate=1 / interlaced=0 / constrained_intra=0 / bframes=5 / b_pyramid=1 / b_adapt=1 / b_bias=0 / direct=1 / weightb=1 / weightp=2 / keyint=250 / keyint_min=25 / scenecut=40 / intra_refresh=0 / rc_lookahead=50 / rc=2pass / mbtree=1 / bitrate=9110 / ratetol=1.0 / qcomp=0.60 / qpmin=10 / qpmax=51 / qpstep=4 / cplxblur=20.0 / qblur=0.5 / ip_ratio=1.40 / aq=1:1.50 
Language : English 

Audio 
ID : 2 
Format : AC-3 
Format/Info : Audio Coding 3 
Mode extension : CM (complete main) 
Codec ID : A_AC3 
Duration : 1h 56mn 
Bit rate mode : Constant 
Bit rate : 640 Kbps 
Channel(s) : 6 channels 
Channel positions : Front: L C R, Side: L R, LFE 
Sampling rate : 48.0 KHz 
Bit depth : 16 bits 
Stream size : 534 MiB (7%) 
Title : 3/2+1 
Language : English 

Text  
Language : English  
Language : French 
Language : Spanish 
Language : Portuguese 

Menu & Chapters 21

 

See the full size 1920x816 PNG files at the link below


 
http://s1015.photobucket.com/albums/af279/tequila-bob/Patriot%20Games%201992/
